# AST/ASF file generated using VICON BodyLanguage
# -----------------------------------------------
:version 1.10
:name VICON
:units
  mass 1.0
  length 0.45
  angle deg
:documentation
   .ast/.asf automatically generated from VICON data using
   VICON BodyBuilder and BodyLanguage model FoxedUp or BRILLIANT.MOD
:root
   order TX TY TZ RX RY RZ
   axis XYZ
   position 0 0 0  
   orientation 0 0 0 
:bonedata
  begin
     id 1 
     name lhipjoint
     direction 0.722297 -0.617336 0.311742 
     length 2.6635 
     axis 0 0 0  XYZ
  end
  begin
     id 2 
     name lfemur
     direction 0.34202 -0.939693 0  
     length 7.39349  
     axis 0 0 20  XYZ
    dof rx ry rz
    limits (-160.0 20.0)
           (-70.0 70.0)
           (-60.0 70.0)
  end
  begin
     id 3 
     name ltibia
     direction 0.34202 -0.939693 0   
     length 7.36294   
     axis 0 0 20   XYZ
    dof rx
    limits (-10.0 170.0)
  end
  begin
     id 4 
     name lfoot
     direction 0.104879 -0.288152 0.951824   
     length 2.16981   
     axis -90 7.62852e-016 20   XYZ
    dof rx rz
    limits (-45.0 90.0)
           (-70.0 20.0)
  end
  begin
     id 5 
     name ltoes
     direction 1.53586e-011 -4.21895e-011 1   
     length 1.08218   
     axis -90 7.62852e-016 20   XYZ
    dof rx
    limits (-90.0 20.0)
  end
  begin
     id 6 
     name rhipjoint
     direction -0.75102 -0.589393 0.297631   
     length 2.78977  
     axis 0 0 0  XYZ 
  end
  begin
     id 7 
     name rfemur
     direction -0.34202 -0.939693 0   
     length 7.46076   
     axis 0 0 -20   XYZ
    dof rx ry rz
    limits (-160.0 20.0)
           (-70.0 70.0)
           (-70.0 60.0)
  end
  begin
     id 8 
     name rtibia
     direction -0.34202 -0.939693 0   
     length 7.31726   
     axis 0 0 -20   XYZ
    dof rx
    limits (-10.0 170.0)
 end
 begin
     id 9 
     name rfoot
     direction -0.107991 -0.296704 0.948844   
     length 2.09388  
     axis -90 -7.62852e-016 -20   XYZ
    dof rx rz
    limits (-45.0 90.0)
           (-20.0 70.0)
  end
  begin
     id 10 
     name rtoes
     direction -1.53559e-011 -4.21911e-011 1   
     length 1.04433   
     axis -90 -7.62852e-016 -20   XYZ
    dof rx
    limits (-90.0 20.0)
  end
  begin
     id 11 
     name lowerback
     direction 0.0165164 0.98272 0.184358   
     length 1.71896   
     axis 0 0 0   XYZ
    dof rx ry rz
    limits (-20.0 45.0)
           (-30.0 30.0)
           (-30.0 30.0)
  end
  begin
     id 12 
     name upperback
     direction -0.00887249 0.992297 0.123566   
     length 1.71504   
     axis 0 0 0   XYZ
    dof rx ry rz
    limits (-20.0 45.0)
           (-30.0 30.0)
           (-30.0 30.0)
  end
  begin
     id 13 
     name thorax
     direction -0.0157026 0.998908 0.0440032   
     length 1.77022   
     axis 0 0 0   XYZ
    dof rx ry rz
    limits (-20.0 45.0)
           (-30.0 30.0)
           (-30.0 30.0)
  end
  begin
     id 14 
     name lowerneck
     direction -0.0238856 0.998137 0.0561411   
     length 1.89341   
     axis 0 0 0   XYZ
    dof rx ry rz
    limits (-20.0 45.0)
           (-30.0 30.0)
           (-30.0 30.0)
  end
  begin
     id 15 
     name upperneck
     direction 0.0276574 0.952253 -0.304056   
     length 1.86999   
     axis 0 0 0   XYZ
    dof rx ry rz
    limits (-20.0 45.0)
           (-30.0 30.0)
           (-30.0 30.0)
  end
  begin
     id 16
     name head
     direction 0.00800083 0.994258 -0.106712  
     length 1.91492  
     axis 0 0 0   XYZ
    dof rx ry rz
    limits (-20.0 45.0)
           (-30.0 30.0)
           (-30.0 30.0)
  end
  begin
     id 17 
     name lclavicle
     direction 0.97203 0.225407 0.06595  
     length 3.34889  
     axis 0 0 0   XYZ
    dof ry rz
    limits (-20.0 10.0)
           (0.0 20.0)
  end
  begin
     id 18 
     name lhumerus
     direction 1 -4.48973e-011 2.20267e-027   
     length 4.85645   
     axis 180 -30 -90   XYZ
    dof rx ry rz
    limits (-60.0 90.0)
           (-90.0 90.0)
           (-90.0 90.0)
  end
  begin
     id 19
     name lradius
     direction 1 -4.4897e-011 4.60472e-027   
     length 2.79874   
     axis 180 -30 -90   XYZ
    dof rx
    limits (-10.0 170.0)
  end
  begin
     id 20
     name lwrist
     direction 1 -4.48952e-011 1.14928e-026   
     length 1.39937   
     axis -6.29373e-015 90 90   XYZ
    dof ry
    limits (-180.0 0.0)
 end
  begin
     id 21 
     name lhand
     direction 1 -4.48967e-011 2.29886e-026   
     length 0.573398   
     axis -1.46689e-014 90 90   XYZ
    dof rx rz
    limits (-90.0 90.0)
           (-45.0 45.0)
  end
  begin
     id 22 
     name lfingers
     direction 1 -4.48955e-011 4.59726e-026   
     length 0.462289   
     axis -2.93383e-014 90 90   XYZ
    dof rx
    limits (0.0 90.0)
  end
  begin
     id 23
     name lthumb
     direction 0.707107 -6.34866e-011 0.707107   
     length 0.663757   
     axis -90 45 5.69224e-014   XYZ
    dof rx rz
    limits (-45.0 45.0)
           (-45.0 45.0)
  end
  begin
     id 24 
     name rclavicle
     direction -0.981571 0.157346 0.108443   
     length 3.35257  
     axis 0 0 0   XYZ 
    dof ry rz
    limits (-10.0 20.0)
           (-20.0 0.0)
  end
  begin
     id 25 
     name rhumerus
     direction -1 -4.48967e-011 8.58308e-029  
     length 4.67018   
     axis 180 30 90   XYZ
    dof rx ry rz
    limits (-90.0 60.0)
           (-90.0 90.0)
           (-90.0 90.0)
  end
  begin
     id 26 
     name rradius
     direction -1 -4.48958e-011 4.52548e-027   
     length 2.65534   
     axis 180 30 90   XYZ
    dof rx
    limits (-10.0 170.0)
  end
  begin
     id 27 
     name rwrist
     direction -1 -4.48977e-011 1.14952e-026   
     length 1.32767   
     axis -6.29373e-015 -90 -90   XYZ
    dof ry
    limits (-180.0 0.0)
  end
  begin
     id 28
     name rhand
     direction -1 -4.48924e-011 2.29804e-026   
     length 0.594069   
     axis -1.46689e-014 -90 -90   XYZ
    dof rx rz
    limits (-90.0 90.0)
           (-45.0 45.0)
  end
  begin
     id 29
     name rfingers
     direction -1 -4.48998e-011 4.59888e-026   
     length 0.478954   
     axis -2.93383e-014 -90 -90   XYZ
    dof rx
    limits (0.0 90.0)
  end
  begin
     id 30
     name rthumb
     direction -0.707107 -6.34933e-011 0.707107   
     length 0.687685   
     axis -90 -45 -5.69224e-014   XYZ
    dof rx rz
    limits (-45.0 45.0)
           (-45.0 45.0)
  end
:hierarchy
  begin
    root lhipjoint rhipjoint lowerback
    lhipjoint lfemur
    lfemur ltibia
    ltibia lfoot
    lfoot ltoes
    rhipjoint rfemur
    rfemur rtibia
    rtibia rfoot
    rfoot rtoes
    lowerback upperback
    upperback thorax
    thorax lowerneck lclavicle rclavicle
    lowerneck upperneck
    upperneck head
    lclavicle lhumerus
    lhumerus lradius
    lradius lwrist
    lwrist lhand lthumb
    lhand lfingers
    rclavicle rhumerus
    rhumerus rradius
    rradius rwrist
    rwrist rhand rthumb
    rhand rfingers
  end

#!OML:ASF E:\pregnant2\Project 1\Capture day 1\Session 1\pregnant2.ASF
:FULLY-SPECIFIED
:DEGREES
1277
root 9.29282 10.7389 18.6817 25.9444 -8.86818 9.13541
lowerback -42.4439 0.38975 -7.51572
upperback -11.4443 3.93634 -4.15403
thorax 7.07527 1.76197 0.984093
lowerneck -10.8313 -1.77254 -3.93345
upperneck 48.4001 -1.43938 -0.455304
head 21.548 -1.41121 0.16935
rclavicle 2.09718e-014 -1.51076e-014
rhumerus -40.1568 18.7548 -77.823
rradius 80.9207
rwrist 24.0434
rhand 11.256 -10.9366
rfingers 7.12502
rthumb 36.3166 -37.1747
lclavicle 2.09718e-014 -1.51076e-014
lhumerus -39.5176 -16.6176 78.8019
lradius 76.7096
lwrist -24.2225
lhand 10.3589 32.2125
lfingers 7.12502
lthumb 35.4666 58.6583
rfemur -130.978 7.72103 29.2713
rtibia 84.7212
rfoot 17.5754 -5.56129
rtoes 9.32081
lfemur -109.874 -7.18886 -30.972
ltibia 86.9272
lfoot -0.089269 5.38146
ltoes -12.6774
1278
root 9.29426 10.7336 18.6802 25.9802 -8.79514 9.10759
lowerback -42.319 0.367038 -7.51253
upperback -11.2408 3.91546 -4.14139
thorax 7.26799 1.74407 0.992951
lowerneck -11.0156 -1.78509 -3.96913
upperneck 48.3253 -1.45935 -0.406236
head 21.5499 -1.41666 0.197548
rclavicle -4.91992e-014 2.42517e-014
rhumerus -39.9831 18.7108 -77.6592
rradius 81.2145
rwrist 24.1202
rhand 11.1304 -10.9461
rfingers 7.12502
rthumb 36.1977 -37.2138
lclavicle -4.91992e-014 2.42517e-014
lhumerus -39.2961 -16.4615 78.724
lradius 76.9363
lwrist -24.2054
lhand 10.1376 32.1767
lfingers 7.12502
lthumb 35.2568 58.6724
rfemur -130.732 7.29052 28.6842
rtibia 85.0006
rfoot 17.5007 -6.12356
rtoes 10.5796
lfemur -109.943 -7.11681 -31.1496
ltibia 86.9504
lfoot -0.111298 5.12055
ltoes -12.5106
1279
root 9.29614 10.7285 18.6788 26.0195 -8.72069 9.07786
lowerback -42.2049 0.352101 -7.49795
upperback -11.026 3.90189 -4.13305
thorax 7.47747 1.72848 0.994822
lowerneck -11.2186 -1.80103 -4.00248
upperneck 48.2407 -1.48568 -0.354587
head 21.5504 -1.42349 0.225316
rclavicle -2.17669e-014 1.86858e-014
rhumerus -39.8069 18.6724 -77.488
rradius 81.5174
rwrist 24.1879
rhand 10.9895 -10.9448
rfingers 7.12502
rthumb 36.0643 -37.2455
lclavicle -2.17669e-014 1.86858e-014
lhumerus -39.0622 -16.3177 78.6438
lradius 77.1697
lwrist -24.1689
lhand 9.93318 32.1581
lfingers 7.12502
lthumb 35.063 58.6994
rfemur -130.495 6.86577 28.1175
rtibia 85.3022
rfoot 17.4086 -6.5771
rtoes 11.5158
lfemur -110.018 -7.0459 -31.3257
ltibia 86.9769
lfoot -0.131781 4.84681
ltoes -12.3763
1280
root 9.2984 10.7234 18.6786 26.0728 -8.64946 9.04284
lowerback -42.1158 0.34547 -7.46902
upperback -10.8057 3.89565 -4.12786
thorax 7.70147 1.71529 0.989415
lowerneck -11.4349 -1.81948 -4.02262
upperneck 48.1471 -1.51144 -0.320151
head 21.5475 -1.42962 0.241495
rclavicle 6.55989e-015 -9.93923e-015
rhumerus -39.639 18.6446 -77.3154
rradius 81.8276
rwrist 24.2528
rhand 10.8382 -10.9301
rfingers 7.12502
rthumb 35.9209 -37.266
lclavicle 6.55989e-015 -9.93923e-015
lhumerus -38.8255 -16.1873 78.5616
lradius 77.4105
lwrist -24.111
lhand 9.73751 32.1578
lfingers 7.12502
lthumb 34.8773 58.7424
rfemur -130.279 6.45363 27.5712
rtibia 85.6317
rfoot 17.2811 -7.18068
rtoes 12.8548
lfemur -110.112 -6.97379 -31.4967
ltibia 87.0126
lfoot -0.154826 4.56574
ltoes -12.2451
1281
root 9.30077 10.7178 18.6781 26.1108 -8.56825 8.99858
lowerback -41.9832 0.343848 -7.42972
upperback -10.5862 3.88722 -4.12243
thorax 7.91279 1.70198 0.977687
lowerneck -11.6619 -1.83941 -4.03559
upperneck 48.0432 -1.54164 -0.285214
head 21.54 -1.43579 0.255691
rclavicle -6.55989e-015 7.15625e-015
rhumerus -39.4835 18.6258 -77.1435
rradius 82.1451
rwrist 24.332
rhand 10.6528 -10.9048
rfingers 7.12502
rthumb 35.7453 -37.2835
lclavicle -6.55989e-015 7.15625e-015
lhumerus -38.5889 -16.0755 78.4785
lradius 77.6641
lwrist -24.0269
lhand 9.5295 32.1631
lfingers 7.12502
lthumb 34.68 58.7933
rfemur -130.057 6.04411 27.0527
rtibia 85.9888
rfoot 17.1833 -7.44725
rtoes 13.3204
lfemur -110.199 -6.89984 -31.6573
ltibia 87.0577
lfoot -0.170287 4.2654
ltoes -12.1314
1282
root 9.30319 10.7124 18.6767 26.1371 -8.47638 8.94722
lowerback -41.8116 0.345544 -7.3842
upperback -10.368 3.87665 -4.11667
thorax 8.11139 1.68861 0.961815
lowerneck -11.9011 -1.86074 -4.04238
upperneck 47.9382 -1.57567 -0.249822
head 21.5357 -1.44202 0.268046
rclavicle 3.34952e-014 -3.81667e-014
rhumerus -39.3409 18.6168 -76.9725
rradius 82.4639
rwrist 24.4316
rhand 10.4258 -10.8767
rfingers 7.12502
rthumb 35.5301 -37.3073
lclavicle 3.34952e-014 -3.81667e-014
lhumerus -38.3544 -15.9932 78.3972
lradius 77.9292
lwrist -23.9111
lhand 9.29415 32.1616
lfingers 7.12502
lthumb 34.4566 58.8428
rfemur -129.829 5.63556 26.5613
rtibia 86.3655
rfoot 17.1291 -7.41639
rtoes 13.0211
lfemur -110.28 -6.82434 -31.8066
ltibia 87.1047
lfoot -0.17049 3.93499
ltoes -12.0624
1283
root 9.30554 10.7058 18.674 26.1275 -8.36585 8.88806
lowerback -41.5213 0.346124 -7.33849
upperback -10.1783 3.85064 -4.10596
thorax 8.2422 1.67221 0.942799
lowerneck -12.1348 -1.88076 -4.04671
upperneck 47.8372 -1.60872 -0.214212
head 21.533 -1.44742 0.280203
rclavicle 3.05134e-014 -1.35174e-014
rhumerus -39.2494 18.6241 -76.8136
rradius 82.7941
rwrist 24.5554
rhand 10.1553 -10.8463
rfingers 7.12502
rthumb 35.2737 -37.338
lclavicle 3.05134e-014 -1.35174e-014
lhumerus -38.1581 -15.9409 78.3246
lradius 78.2134
lwrist -23.7673
lhand 9.02692 32.152
lfingers 7.12502
lthumb 34.2028 58.8905
rfemur -129.579 5.22284 26.0967
rtibia 86.7649
rfoot 17.1142 -7.15578
rtoes 12.1307
lfemur -110.338 -6.74691 -31.9418
ltibia 87.1574
lfoot -0.15252 3.57538
ltoes -11.994
1284
root 9.3082 10.7002 18.6697 26.1101 -8.2506 8.82516
lowerback -41.1128 0.33285 -7.31606
upperback -10.0629 3.79643 -4.07063
thorax 8.24948 1.64991 0.94691
lowerneck -12.31 -1.89362 -4.06976
upperneck 47.7624 -1.62574 -0.180434
head 21.5322 -1.45095 0.29838
rclavicle 3.22031e-014 -1.15295e-014
rhumerus -39.281 18.6968 -76.6736
rradius 83.1385
rwrist 24.6885
rhand 9.83288 -10.8251
rfingers 7.12502
rthumb 34.9678 -37.3887
lclavicle 3.22031e-014 -1.15295e-014
lhumerus -38.0914 -15.9174 78.3002
lradius 78.5213
lwrist -23.5907
lhand 8.70602 32.1241
lfingers 7.12502
lthumb 33.898 58.9304
rfemur -129.32 4.81374 25.6513
rtibia 87.1694
rfoot 17.1093 -6.90662
rtoes 11.3021
lfemur -110.389 -6.6644 -32.0666
ltibia 87.2022
lfoot -0.119801 3.18414
ltoes -11.9652
1285
root 9.31101 10.6959 18.6651 26.1009 -8.13975 8.76453
lowerback -40.4635 0.301205 -7.34265
upperback -10.1511 3.69497 -4.0065
thorax 7.94716 1.6224 0.979369
lowerneck -12.3089 -1.89326 -4.11321
upperneck 47.7665 -1.61723 -0.160755
head 21.5364 -1.45218 0.31898
rclavicle -8.15017e-015 4.25399e-014
rhumerus -39.6452 18.8727 -76.613
rradius 83.5274
rwrist 24.8316
rhand 9.46784 -10.8095
rfingers 7.12502
rthumb 34.6214 -37.4531
lclavicle -8.15017e-015 4.25399e-014
lhumerus -38.3623 -15.9504 78.3714
lradius 78.8833
lwrist -23.3898
lhand 8.337 32.0805
lfingers 7.12502
lthumb 33.5474 58.9636
rfemur -129.071 4.41256 25.2157
rtibia 87.5736
rfoot 17.1196 -6.70036
rtoes 10.6074
lfemur -110.443 -6.5767 -32.1875
ltibia 87.239
lfoot -0.0838186 2.77644
ltoes -11.9247
